<svg data-v-423bf9ae="" xmlns="http://www.w3.org/2000/svg" viewBox="0 0 485 90" class="iconLeft"><!----><!----><!----><g data-v-423bf9ae="" id="3e001e21-4ff9-49f4-af78-be72b734de37" fill="black" transform="matrix(5.822488784790039,0,0,5.822488784790039,145.5000457763672,12.641141891479492)"><path d="M5.26 6.26L6.94 8.32C6.62 8.44 6.24 8.51 5.81 8.51C1.90 8.51 1.90 2.46 5.81 2.46C8.53 2.46 9.35 5.36 8.33 7.15L7.63 6.26L5.26 6.26L5.26 6.26ZM8.29 9.98L8.78 10.56L10.99 10.56L9.67 8.88C12.10 6.02 10.81 0.43 5.81 0.43C-0.91 0.43-0.91 10.53 5.81 10.53C6.79 10.53 7.60 10.33 8.29 9.98L8.29 9.98ZM20.05 7.01L20.05 0.49L18.06 0.49L18.06 7C18.06 9.10 14.81 9.10 14.81 7L14.81 0.49L12.81 0.49L12.81 7.01C12.81 11.77 20.05 11.77 20.05 7.01L20.05 7.01ZM24.26 10.50L24.26 0.49L22.26 0.49L22.26 10.50L24.26 10.50L24.26 10.50ZM32.41 10.50L32.41 10.50L32.41 8.48L28.69 8.48C29.89 5.82 31.09 3.16 32.30 0.49L32.30 0.49L26.24 0.49L26.24 2.44L29.32 2.44C28.11 5.11 26.91 7.81 25.70 10.50L25.70 10.50L32.41 10.50ZM37.42 10.71L39.24 6.23L41.08 10.67L41.44 10.67L45.53 0.49L43.27 0.49L41.26 5.60L39.30 0.59L39.20 0.59L37.24 5.60L35.22 0.49L32.97 0.49L37.07 10.71ZM48.75 10.50L48.75 0.49L46.75 0.49L46.75 10.50L48.75 10.50L48.75 10.50ZM58.23 9.88L58.23 9.88L58.23 5.49L56.20 5.49L56.20 8.50C56.01 8.53 55.82 8.55 55.64 8.55C51.77 8.55 51.59 2.58 55.64 2.44C56.70 2.41 57.34 2.63 57.74 2.80L57.97 0.77C57.79 0.71 56.83 0.36 55.64 0.41C48.69 0.66 49.03 10.56 55.64 10.56C56.59 10.56 57.46 10.32 58.23 9.88Z"></path></g><!----><g data-v-423bf9ae="" id="98390fd0-1bb7-4153-be64-5c3638fe7fec" transform="matrix(1.4492988586425781,0,0,1.4492988586425781,-7.378657341003418,-23.490713119506836)" stroke="none" fill="black"><path d="M34.748 29.849c-6.062 0-11.379 4.274-11.379 9.146 0 2.06 1.513 3.498 3.68 3.498 2.515 0 3.284-1.652 3.963-3.111.725-1.556 1.35-2.902 4.008-2.902 2.357 0 3.654 1.137 3.654 3.198 0 1.771-1.583 2.992-3.416 4.405-2.136 1.646-4.556 3.514-4.556 6.708 0 1.83 1.274 3.772 3.635 3.772 2.64 0 3.234-1.567 3.713-2.827.18-.476.35-.925.616-1.313.367-.54 1.289-1.194 2.263-1.888 2.578-1.836 6.107-4.35 6.107-8.857 0-7.255-6.62-9.829-12.288-9.829zM34.519 56.086a4.459 4.459 0 0 0-4.454 4.453 4.46 4.46 0 0 0 4.454 4.455 4.46 4.46 0 0 0 4.455-4.455 4.459 4.459 0 0 0-4.455-4.453zM63.457 51.732c-1.512 0-2.741 1.229-2.741 2.741s1.229 2.742 2.741 2.742c1.511 0 2.74-1.23 2.74-2.742s-1.229-2.741-2.74-2.741z"></path><circle cx="71.001" cy="54.474" r="2.742"></circle><path d="M78.545 51.732c-1.511 0-2.742 1.229-2.742 2.741s1.231 2.742 2.742 2.742 2.741-1.23 2.741-2.742-1.23-2.741-2.741-2.741z"></path><path d="M92.159 65.273c5.15-9.732 3.165-21.549-4.878-28.832-4.31-3.904-9.912-6.054-15.772-6.054-2.988 0-5.929.553-8.738 1.644l-.083.034a31.907 31.907 0 0 0-3.685-4.956c-6.005-6.633-14.528-10.437-23.384-10.437-7.582 0-14.828 2.781-20.403 7.83C4.851 33.89 2.3 49.681 9.095 62.161l-2.753 9.224a2.89 2.89 0 0 0 .625 2.754 2.904 2.904 0 0 0 2.679.894l9.41-1.821c5.217 3.586 11.534 5.559 17.82 5.559 6.512 0 12.713-2.017 17.937-5.831l.388-.284a23.432 23.432 0 0 0 15.368 5.706c4.748 0 9.533-1.461 13.511-4.121l6.756 1.309a2.878 2.878 0 0 0 3.305-3.648l-1.982-6.629zm-55.285 7.742c-5.51 0-10.986-1.834-15.421-5.164a2.929 2.929 0 0 0-2.274-.524l-5.965 1.154 1.747-5.853a2.882 2.882 0 0 0-.288-2.301c-6.202-10.359-4.349-23.631 4.405-31.559 4.515-4.089 10.389-6.341 16.541-6.341 7.233 0 14.202 3.115 19.118 8.545a26.16 26.16 0 0 1 2.873 3.827 24.46 24.46 0 0 0-4.161 3.645c-7.486 8.268-8.47 20.407-2.393 29.52.088.131.182.258.273.388l-.094.067c-4.193 3.008-9.16 4.596-14.361 4.596zm49.423-7.266l.969 3.247-3.3-.64a2.925 2.925 0 0 0-2.275.524 18.635 18.635 0 0 1-11.123 3.725c-4.428 0-8.656-1.62-11.905-4.562a16.6 16.6 0 0 1-.47-.446c-1-.976-1.881-2.067-2.619-3.245-4.29-6.849-3.408-15.915 2.142-22.045a18.888 18.888 0 0 1 7.296-4.971 18.354 18.354 0 0 1 6.498-1.193c4.43 0 8.659 1.621 11.91 4.565 6.306 5.709 7.638 15.273 3.166 22.74a2.877 2.877 0 0 0-.289 2.301z"></path></g><!----></svg>