<svg data-v-fde0c5aa="" xmlns="http://www.w3.org/2000/svg" viewBox="0 0 300 300" class="font"><!----><defs data-v-fde0c5aa=""><linearGradient data-v-fde0c5aa="" gradientTransform="rotate(25)" id="ffce51e8-3023-4a0e-8d46-3d157d7ed7ee" x1="0%" y1="0%" x2="100%" y2="0%"><stop data-v-fde0c5aa="" offset="0%" stop-color="#EA1F59" stop-opacity="1"></stop><stop data-v-fde0c5aa="" offset="100%" stop-color="#FA9169" stop-opacity="1"></stop></linearGradient></defs><rect data-v-fde0c5aa="" fill="url(#ffce51e8-3023-4a0e-8d46-3d157d7ed7ee)" x="0" y="0" width="300px" height="300px" class="logo-background-square"></rect><defs data-v-fde0c5aa=""><!----></defs><g data-v-fde0c5aa="" id="ec18c952-5ed7-4dfe-aea6-5269d513edb4" fill="#ffffff" transform="matrix(3.8287506103515625,0,0,3.8287506103515625,37.051862191038396,128.72147217508254)"><path d="M5.26 6.26L6.94 8.32C6.62 8.44 6.24 8.51 5.81 8.51C1.90 8.51 1.90 2.46 5.81 2.46C8.53 2.46 9.35 5.36 8.33 7.15L7.63 6.26L5.26 6.26L5.26 6.26ZM8.29 9.98L8.78 10.56L10.99 10.56L9.67 8.88C12.10 6.02 10.81 0.43 5.81 0.43C-0.91 0.43-0.91 10.53 5.81 10.53C6.79 10.53 7.60 10.33 8.29 9.98L8.29 9.98ZM20.05 7.01L20.05 0.49L18.06 0.49L18.06 7C18.06 9.10 14.81 9.10 14.81 7L14.81 0.49L12.81 0.49L12.81 7.01C12.81 11.77 20.05 11.77 20.05 7.01L20.05 7.01ZM24.26 10.50L24.26 0.49L22.26 0.49L22.26 10.50L24.26 10.50L24.26 10.50ZM32.41 10.50L32.41 10.50L32.41 8.48L28.69 8.48C29.89 5.82 31.09 3.16 32.30 0.49L32.30 0.49L26.24 0.49L26.24 2.44L29.32 2.44C28.11 5.11 26.91 7.81 25.70 10.50L25.70 10.50L32.41 10.50ZM37.42 10.71L39.24 6.23L41.08 10.67L41.44 10.67L45.53 0.49L43.27 0.49L41.26 5.60L39.30 0.59L39.20 0.59L37.24 5.60L35.22 0.49L32.97 0.49L37.07 10.71ZM48.75 10.50L48.75 0.49L46.75 0.49L46.75 10.50L48.75 10.50L48.75 10.50ZM58.23 9.88L58.23 9.88L58.23 5.49L56.20 5.49L56.20 8.50C56.01 8.53 55.82 8.55 55.64 8.55C51.77 8.55 51.59 2.58 55.64 2.44C56.70 2.41 57.34 2.63 57.74 2.80L57.97 0.77C57.79 0.71 56.83 0.36 55.64 0.41C48.69 0.66 49.03 10.56 55.64 10.56C56.59 10.56 57.46 10.32 58.23 9.88Z"></path></g><!----><!----></svg>